<svg xmlns="http://www.w3.org/2000/svg" xmlns:xlink="http://www.w3.org/1999/xlink" width="457" zoomAndPan="magnify" viewBox="0 0 342.75 147.750002" height="197" preserveAspectRatio="xMidYMid meet" version="1.0"><defs><g/><clipPath id="effc4f5306"><path d="M 1 67 L 77 67 L 77 106.609375 L 1 106.609375 Z M 1 67 " clip-rule="nonzero"/></clipPath><clipPath id="789f9faf90"><path d="M 16 13.015625 L 93 13.015625 L 93 53 L 16 53 Z M 16 13.015625 " clip-rule="nonzero"/></clipPath><clipPath id="7bca617897"><path d="M 54 29 L 93.757812 29 L 93.757812 106 L 54 106 Z M 54 29 " clip-rule="nonzero"/></clipPath><clipPath id="fce478a3d6"><path d="M 0.164062 14 L 40 14 L 40 90 L 0.164062 90 Z M 0.164062 14 " clip-rule="nonzero"/></clipPath></defs><g clip-path="url(#effc4f5306)"><path fill="#76ab85" d="M 67.582031 90.734375 L 76.300781 82.230469 C 76.300781 82.230469 77.535156 81.09375 76.371094 80.121094 C 76.371094 80.121094 75.539062 79.226562 74.253906 80.546875 L 67.828125 86.5 C 67.828125 86.5 67.261719 86.8125 67.023438 86.480469 C 67.023438 86.480469 66.648438 86.230469 67.058594 85.617188 C 67.058594 85.617188 74.34375 77.359375 76.210938 75.078125 C 76.210938 75.078125 76.886719 74.109375 75.96875 73.269531 C 75.96875 73.269531 74.976562 72.242188 73.613281 73.753906 L 66.347656 82.585938 C 66.347656 82.585938 65.925781 83.074219 65.378906 82.550781 C 65.378906 82.550781 64.964844 82.246094 65.488281 81.652344 L 74.148438 70.660156 C 74.148438 70.660156 75.144531 69.644531 74.15625 68.765625 C 74.15625 68.765625 73.109375 67.832031 71.875 69.214844 L 62.816406 80.273438 C 62.816406 80.273438 62.425781 80.832031 61.605469 80.496094 C 61.605469 80.496094 61.152344 79.933594 61.828125 79.074219 L 68.21875 69.648438 C 68.21875 69.648438 69.183594 68.300781 67.941406 67.421875 C 67.941406 67.421875 66.757812 66.507812 65.453125 68.242188 L 54.484375 82.761719 C 54.484375 82.761719 52.988281 85.316406 51.09375 83.316406 C 51.09375 83.316406 50.644531 82.410156 50.644531 80.019531 C 50.644531 80.019531 51.09375 75.390625 47.808594 73.996094 C 47.808594 73.996094 45.46875 73 46.261719 76.886719 C 46.261719 76.886719 46.910156 80.421875 46.859375 83.558594 C 46.859375 83.558594 46.015625 91.179688 46.460938 96.359375 C 46.460938 96.359375 46.363281 97.601562 45.566406 98.800781 L 42.847656 101.230469 L 42.84375 101.230469 C 41.59375 101.109375 40.359375 100.933594 39.144531 100.699219 L 39.140625 100.699219 C 26.417969 98.308594 15.710938 90.113281 9.898438 78.980469 L 9.898438 78.976562 C 7.867188 76.996094 6.050781 74.953125 4.671875 73.3125 L 4 72.515625 L 4 72.496094 C 3.222656 71.554688 2.667969 70.839844 2.402344 70.492188 L 1.171875 69.382812 C 4.976562 87.402344 19.199219 101.625 37.21875 105.429688 L 37.222656 105.429688 C 39.277344 105.863281 41.378906 106.160156 43.523438 106.3125 L 43.527344 106.3125 C 44.636719 106.394531 45.753906 106.433594 46.878906 106.433594 C 48.621094 106.433594 50.34375 106.339844 52.039062 106.152344 L 55.699219 102.085938 C 55.699219 102.085938 56.902344 101.1875 58.625 99.734375 C 61.183594 97.585938 64.902344 94.210938 67.582031 90.734375 Z M 67.582031 90.734375 " fill-opacity="1" fill-rule="nonzero"/></g><g clip-path="url(#789f9faf90)"><path fill="#76ab85" d="M 26.179688 28.71875 L 17.457031 37.222656 C 17.457031 37.222656 16.222656 38.355469 17.386719 39.328125 C 17.386719 39.328125 18.21875 40.222656 19.503906 38.902344 L 25.929688 32.953125 C 25.929688 32.953125 26.496094 32.640625 26.738281 32.972656 C 26.738281 32.972656 27.113281 33.21875 26.703125 33.835938 C 26.703125 33.835938 19.414062 42.09375 17.550781 44.371094 C 17.550781 44.371094 16.871094 45.34375 17.789062 46.183594 C 17.789062 46.183594 18.78125 47.210938 20.144531 45.695312 L 27.410156 36.863281 C 27.410156 36.863281 27.832031 36.378906 28.378906 36.898438 C 28.378906 36.898438 28.792969 37.203125 28.269531 37.796875 L 19.609375 48.792969 C 19.609375 48.792969 18.613281 49.804688 19.605469 50.6875 C 19.605469 50.6875 20.648438 51.621094 21.882812 50.234375 L 30.945312 39.179688 C 30.945312 39.179688 31.332031 38.617188 32.15625 38.953125 C 32.15625 38.953125 32.605469 39.515625 31.929688 40.375 L 25.539062 49.800781 C 25.539062 49.800781 24.574219 51.152344 25.816406 52.027344 C 25.816406 52.027344 27 52.945312 28.308594 51.207031 L 39.277344 36.6875 C 39.277344 36.6875 40.773438 34.132812 42.664062 36.132812 C 42.664062 36.132812 43.113281 37.039062 43.113281 39.429688 C 43.113281 39.429688 42.664062 44.0625 45.953125 45.453125 C 45.953125 45.453125 48.292969 46.453125 47.496094 42.566406 C 47.496094 42.566406 46.847656 39.03125 46.898438 35.890625 C 46.898438 35.890625 47.746094 28.273438 47.296875 23.09375 C 47.296875 23.09375 47.394531 21.847656 48.191406 20.652344 L 50.914062 18.21875 C 52.164062 18.339844 53.402344 18.515625 54.617188 18.75 C 67.34375 21.144531 78.046875 29.34375 83.863281 40.480469 L 83.863281 40.484375 C 85.890625 42.460938 87.707031 44.5 89.085938 46.136719 L 89.757812 46.9375 L 89.757812 46.953125 C 90.535156 47.894531 91.089844 48.609375 91.355469 48.957031 L 92.585938 50.070312 C 88.78125 32.042969 74.558594 17.824219 56.542969 14.023438 C 54.484375 13.589844 52.378906 13.292969 50.230469 13.136719 C 49.125 13.054688 48.007812 13.015625 46.878906 13.015625 C 45.136719 13.015625 43.417969 13.113281 41.71875 13.296875 L 38.058594 17.363281 C 38.058594 17.363281 36.855469 18.261719 35.132812 19.714844 C 32.570312 21.863281 28.855469 25.238281 26.179688 28.71875 Z M 26.179688 28.71875 " fill-opacity="1" fill-rule="nonzero"/></g><g clip-path="url(#7bca617897)"><path fill="#76ab85" d="M 93.308594 54.570312 L 89.242188 50.902344 C 89.242188 50.902344 88.34375 49.710938 86.894531 47.988281 C 86.894531 47.984375 86.894531 47.984375 86.894531 47.980469 C 84.742188 45.421875 81.367188 41.707031 77.882812 39.027344 L 69.382812 30.304688 C 69.382812 30.304688 68.246094 29.070312 67.277344 30.238281 C 67.277344 30.238281 66.378906 31.070312 67.699219 32.351562 L 73.648438 38.777344 C 73.648438 38.777344 73.960938 39.34375 73.628906 39.585938 C 73.628906 39.585938 73.386719 39.960938 72.765625 39.546875 C 72.765625 39.546875 64.511719 32.265625 62.234375 30.398438 C 62.234375 30.398438 61.261719 29.71875 60.421875 30.640625 C 60.421875 30.640625 59.394531 31.628906 60.90625 32.992188 L 69.742188 40.257812 C 69.742188 40.257812 70.226562 40.683594 69.703125 41.230469 C 69.703125 41.230469 69.402344 41.640625 68.804688 41.121094 L 57.8125 32.457031 C 57.8125 32.457031 56.796875 31.460938 55.921875 32.453125 C 55.921875 32.453125 54.988281 33.496094 56.367188 34.730469 L 67.425781 43.789062 C 67.425781 43.789062 67.984375 44.179688 67.648438 45.003906 C 67.648438 45.003906 67.089844 45.449219 66.230469 44.777344 L 56.800781 38.386719 C 56.800781 38.386719 55.453125 37.417969 54.578125 38.664062 C 54.578125 38.664062 53.660156 39.847656 55.398438 41.15625 L 69.917969 52.125 C 69.917969 52.125 72.472656 53.621094 70.472656 55.511719 C 70.472656 55.511719 69.566406 55.960938 67.175781 55.960938 C 67.175781 55.960938 62.546875 55.511719 61.148438 58.800781 C 61.148438 58.800781 60.15625 61.140625 64.039062 60.34375 C 64.039062 60.34375 67.574219 59.695312 70.710938 59.746094 C 70.710938 59.746094 78.332031 60.59375 83.511719 60.144531 C 83.511719 60.144531 84.757812 60.246094 85.953125 61.039062 L 88.382812 63.761719 L 88.382812 63.765625 C 88.261719 65.015625 88.085938 66.246094 87.855469 67.464844 L 87.855469 67.46875 C 85.464844 80.1875 77.273438 90.886719 66.140625 96.703125 L 66.136719 96.703125 C 64.15625 98.734375 62.113281 100.550781 60.46875 101.929688 C 59.121094 103.0625 58.089844 103.871094 57.644531 104.210938 L 56.542969 105.433594 C 74.5625 101.628906 88.78125 87.410156 92.582031 69.390625 L 92.582031 69.386719 C 93.019531 67.332031 93.316406 65.222656 93.472656 63.082031 L 93.472656 63.078125 C 93.554688 61.972656 93.59375 60.855469 93.59375 59.726562 C 93.59375 57.984375 93.496094 56.261719 93.308594 54.570312 Z M 93.308594 54.570312 " fill-opacity="1" fill-rule="nonzero"/></g><g clip-path="url(#fce478a3d6)"><path fill="#76ab85" d="M 6.859375 71.464844 C 6.859375 71.46875 6.859375 71.46875 6.859375 71.472656 C 9.015625 74.03125 12.390625 77.746094 15.871094 80.425781 L 24.375 89.148438 C 24.375 89.148438 25.511719 90.382812 26.480469 89.214844 C 26.480469 89.214844 27.378906 88.382812 26.058594 87.101562 L 20.105469 80.675781 C 20.105469 80.675781 19.796875 80.109375 20.128906 79.867188 C 20.128906 79.867188 20.375 79.492188 20.992188 79.90625 C 20.992188 79.90625 29.246094 87.1875 31.523438 89.054688 C 31.523438 89.054688 32.496094 89.734375 33.339844 88.8125 C 33.339844 88.8125 34.367188 87.824219 32.851562 86.460938 L 24.015625 79.195312 C 24.015625 79.195312 23.53125 78.769531 24.054688 78.222656 C 24.054688 78.222656 24.355469 77.8125 24.953125 78.332031 L 35.949219 86.996094 C 35.949219 86.996094 36.960938 87.992188 37.835938 87 C 37.835938 87 38.773438 85.957031 37.390625 84.722656 L 26.332031 75.664062 C 26.332031 75.664062 25.773438 75.273438 26.109375 74.449219 C 26.109375 74.449219 26.667969 74.003906 27.53125 74.675781 L 36.957031 81.066406 C 36.957031 81.066406 38.304688 82.035156 39.179688 80.789062 C 39.179688 80.789062 40.097656 79.601562 38.359375 78.296875 L 23.84375 67.328125 C 23.84375 67.328125 21.285156 65.832031 23.285156 63.941406 C 23.285156 63.941406 24.191406 63.492188 26.582031 63.492188 C 26.582031 63.492188 31.210938 63.941406 32.609375 60.652344 C 32.609375 60.652344 33.601562 58.3125 29.71875 59.109375 C 29.71875 59.109375 26.183594 59.757812 23.046875 59.707031 C 23.046875 59.707031 15.425781 58.859375 10.246094 59.304688 C 10.246094 59.304688 9.003906 59.207031 7.808594 58.410156 L 5.375 55.6875 C 5.496094 54.433594 5.671875 53.199219 5.898438 51.984375 C 8.292969 39.257812 16.492188 28.554688 27.632812 22.738281 C 29.613281 20.710938 31.652344 18.898438 33.289062 17.523438 C 34.632812 16.394531 35.667969 15.585938 36.109375 15.242188 L 37.214844 14.019531 C 19.195312 17.824219 4.976562 32.042969 1.171875 50.0625 L 1.171875 50.066406 C 0.738281 52.121094 0.441406 54.230469 0.285156 56.371094 L 0.285156 56.375 C 0.203125 57.484375 0.164062 58.597656 0.164062 59.726562 C 0.164062 61.46875 0.261719 63.191406 0.445312 64.882812 L 4.515625 68.546875 C 4.515625 68.546875 5.410156 69.742188 6.859375 71.464844 Z M 6.859375 71.464844 " fill-opacity="1" fill-rule="nonzero"/></g><g fill="#000000" fill-opacity="1"><g transform="translate(115.452602, 52.063167)"><g><path d="M 10.9375 0 L 10.9375 -23.90625 L 1.296875 -23.90625 L 1.296875 -30.375 L 27.46875 -30.375 L 27.46875 -23.90625 L 17.828125 -23.90625 L 17.828125 0 Z M 10.9375 0 "/></g></g></g><g fill="#000000" fill-opacity="1"><g transform="translate(144.217565, 52.063167)"><g><path d="M 22.4375 0 L 22.4375 -12.234375 L 10.546875 -12.234375 L 10.546875 0 L 3.640625 0 L 3.640625 -30.375 L 10.546875 -30.375 L 10.546875 -18.703125 L 22.4375 -18.703125 L 22.4375 -30.375 L 29.328125 -30.375 L 29.328125 0 Z M 22.4375 0 "/></g></g></g><g fill="#000000" fill-opacity="1"><g transform="translate(177.190972, 52.063167)"><g><path d="M 3.640625 0 L 3.640625 -30.375 L 23.609375 -30.375 L 23.609375 -24.5625 L 10.5 -24.5625 L 10.5 -18.265625 L 22.4375 -18.265625 L 22.4375 -12.5 L 10.5 -12.5 L 10.5 -5.859375 L 24.078125 -5.859375 L 24.078125 0 Z M 3.640625 0 "/></g></g></g><g fill="#000000" fill-opacity="1"><g transform="translate(203.482928, 52.063167)"><g/></g></g><g fill="#000000" fill-opacity="1"><g transform="translate(213.678657, 52.063167)"><g><path d="M 17.796875 0.609375 C 14.691406 0.609375 11.9375 -0.0625 9.53125 -1.40625 C 7.132812 -2.75 5.253906 -4.609375 3.890625 -6.984375 C 2.535156 -9.359375 1.859375 -12.09375 1.859375 -15.1875 C 1.859375 -18.28125 2.53125 -21.015625 3.875 -23.390625 C 5.226562 -25.765625 7.097656 -27.625 9.484375 -28.96875 C 11.867188 -30.3125 14.59375 -30.984375 17.65625 -30.984375 C 20.113281 -30.984375 22.382812 -30.546875 24.46875 -29.671875 C 26.550781 -28.804688 28.320312 -27.582031 29.78125 -26 C 31.25 -24.425781 32.285156 -22.570312 32.890625 -20.4375 L 25.46875 -20.4375 C 24.75 -21.769531 23.710938 -22.800781 22.359375 -23.53125 C 21.015625 -24.269531 19.492188 -24.640625 17.796875 -24.640625 C 16.023438 -24.640625 14.457031 -24.234375 13.09375 -23.421875 C 11.738281 -22.617188 10.675781 -21.507812 9.90625 -20.09375 C 9.144531 -18.675781 8.765625 -17.039062 8.765625 -15.1875 C 8.765625 -13.363281 9.140625 -11.742188 9.890625 -10.328125 C 10.640625 -8.910156 11.691406 -7.789062 13.046875 -6.96875 C 14.410156 -6.144531 16.019531 -5.734375 17.875 -5.734375 C 20.101562 -5.734375 21.953125 -6.296875 23.421875 -7.421875 C 24.898438 -8.546875 25.859375 -10.035156 26.296875 -11.890625 L 16.4375 -11.890625 L 16.4375 -17.21875 L 33.578125 -17.21875 C 33.753906 -14.625 33.503906 -12.238281 32.828125 -10.0625 C 32.148438 -7.894531 31.109375 -6.007812 29.703125 -4.40625 C 28.296875 -2.800781 26.585938 -1.5625 24.578125 -0.6875 C 22.566406 0.175781 20.304688 0.609375 17.796875 0.609375 Z M 17.796875 0.609375 "/></g></g></g><g fill="#000000" fill-opacity="1"><g transform="translate(249.081689, 52.063167)"><g><path d="M 0.390625 0 L 12.453125 -30.375 L 19.21875 -30.375 L 31.28125 0 L 23.90625 0 L 21.875 -5.25 L 9.8125 -5.25 L 7.765625 0 Z M 11.578125 -10.671875 L 20.140625 -10.671875 L 15.84375 -21.78125 Z M 11.578125 -10.671875 "/></g></g></g><g fill="#000000" fill-opacity="1"><g transform="translate(280.753508, 52.063167)"><g><path d="M 3.640625 0 L 3.640625 -30.375 L 10.546875 -30.375 L 10.546875 0 Z M 3.640625 0 "/></g></g></g><g fill="#000000" fill-opacity="1"><g transform="translate(294.940746, 52.063167)"><g><path d="M 0.390625 0 L 12.453125 -30.375 L 19.21875 -30.375 L 31.28125 0 L 23.90625 0 L 21.875 -5.25 L 9.8125 -5.25 L 7.765625 0 Z M 11.578125 -10.671875 L 20.140625 -10.671875 L 15.84375 -21.78125 Z M 11.578125 -10.671875 "/></g></g></g><g fill="#000000" fill-opacity="1"><g transform="translate(120.521521, 95.531727)"><g><path d="M 0.5625 0 L 7.9375 -17.8125 L 9.421875 -17.8125 L 16.796875 0 L 15.171875 0 L 13.3125 -4.484375 L 4.046875 -4.484375 L 2.21875 0 Z M 4.65625 -5.90625 L 12.71875 -5.90625 L 8.671875 -15.703125 Z M 4.65625 -5.90625 "/></g></g></g><g fill="#000000" fill-opacity="1"><g transform="translate(147.635127, 95.531727)"><g><path d="M 2.875 0 L 2.875 -17.8125 L 4.421875 -17.8125 L 4.421875 -1.46875 L 13.46875 -1.46875 L 13.46875 0 Z M 2.875 0 "/></g></g></g><g fill="#000000" fill-opacity="1"><g transform="translate(171.694288, 95.531727)"><g><path d="M 2.875 0 L 2.875 -17.8125 L 4.421875 -17.8125 L 4.421875 -1.46875 L 13.46875 -1.46875 L 13.46875 0 Z M 2.875 0 "/></g></g></g><g fill="#000000" fill-opacity="1"><g transform="translate(195.753449, 95.531727)"><g><path d="M 2.875 0 L 2.875 -17.8125 L 4.421875 -17.8125 L 4.421875 0 Z M 2.875 0 "/></g></g></g><g fill="#000000" fill-opacity="1"><g transform="translate(212.787397, 95.531727)"><g><path d="M 0.5625 0 L 7.9375 -17.8125 L 9.421875 -17.8125 L 16.796875 0 L 15.171875 0 L 13.3125 -4.484375 L 4.046875 -4.484375 L 2.21875 0 Z M 4.65625 -5.90625 L 12.71875 -5.90625 L 8.671875 -15.703125 Z M 4.65625 -5.90625 "/></g></g></g><g fill="#000000" fill-opacity="1"><g transform="translate(239.900998, 95.531727)"><g><path d="M 2.875 0 L 2.875 -17.8125 L 4.328125 -17.8125 L 15.171875 -2.671875 L 15.171875 -17.8125 L 16.703125 -17.8125 L 16.703125 0 L 15.25 0 L 4.40625 -15.171875 L 4.40625 0 Z M 2.875 0 "/></g></g></g><g fill="#000000" fill-opacity="1"><g transform="translate(269.203628, 95.531727)"><g><path d="M 10.671875 0.328125 C 8.921875 0.328125 7.363281 -0.0625 6 -0.84375 C 4.644531 -1.632812 3.578125 -2.722656 2.796875 -4.109375 C 2.015625 -5.503906 1.625 -7.101562 1.625 -8.90625 C 1.625 -10.71875 2.015625 -12.316406 2.796875 -13.703125 C 3.578125 -15.085938 4.644531 -16.171875 6 -16.953125 C 7.363281 -17.742188 8.921875 -18.140625 10.671875 -18.140625 C 12.023438 -18.140625 13.273438 -17.890625 14.421875 -17.390625 C 15.578125 -16.890625 16.570312 -16.1875 17.40625 -15.28125 C 18.238281 -14.375 18.851562 -13.296875 19.25 -12.046875 L 17.609375 -12.046875 C 17.097656 -13.453125 16.222656 -14.5625 14.984375 -15.375 C 13.753906 -16.1875 12.320312 -16.59375 10.6875 -16.59375 C 9.25 -16.59375 7.960938 -16.269531 6.828125 -15.625 C 5.703125 -14.976562 4.816406 -14.078125 4.171875 -12.921875 C 3.523438 -11.773438 3.203125 -10.4375 3.203125 -8.90625 C 3.203125 -7.394531 3.523438 -6.054688 4.171875 -4.890625 C 4.816406 -3.734375 5.703125 -2.832031 6.828125 -2.1875 C 7.960938 -1.539062 9.25 -1.21875 10.6875 -1.21875 C 12.351562 -1.21875 13.828125 -1.640625 15.109375 -2.484375 C 16.390625 -3.335938 17.273438 -4.503906 17.765625 -5.984375 L 19.390625 -5.984375 C 19.035156 -4.710938 18.429688 -3.597656 17.578125 -2.640625 C 16.734375 -1.691406 15.722656 -0.957031 14.546875 -0.4375 C 13.367188 0.0703125 12.078125 0.328125 10.671875 0.328125 Z M 10.671875 0.328125 "/></g></g></g><g fill="#000000" fill-opacity="1"><g transform="translate(299.855286, 95.531727)"><g><path d="M 2.875 0 L 2.875 -17.8125 L 13.359375 -17.8125 L 13.359375 -16.359375 L 4.421875 -16.359375 L 4.421875 -9.796875 L 12.703125 -9.796875 L 12.703125 -8.375 L 4.421875 -8.375 L 4.421875 -1.453125 L 13.640625 -1.453125 L 13.640625 0 Z M 2.875 0 "/></g></g></g></svg>