<svg xmlns="http://www.w3.org/2000/svg" xmlns:xlink="http://www.w3.org/1999/xlink" width="451" zoomAndPan="magnify" viewBox="0 0 338.25 140.249994" height="187" preserveAspectRatio="xMidYMid meet" version="1.0"><defs><g/><clipPath id="4d50a1b6f0"><path d="M 1 63 L 77 63 L 77 103.234375 L 1 103.234375 Z M 1 63 " clip-rule="nonzero"/></clipPath><clipPath id="f3f4db38a4"><path d="M 17 9.984375 L 93 9.984375 L 93 50 L 17 50 Z M 17 9.984375 " clip-rule="nonzero"/></clipPath><clipPath id="400bb95fcf"><path d="M 54 26 L 93.777344 26 L 93.777344 103 L 54 103 Z M 54 26 " clip-rule="nonzero"/></clipPath><clipPath id="fa0c477e1f"><path d="M 0.527344 10 L 40 10 L 40 87 L 0.527344 87 Z M 0.527344 10 " clip-rule="nonzero"/></clipPath></defs><g clip-path="url(#4d50a1b6f0)"><path fill="#76ab85" d="M 67.65625 87.371094 L 76.335938 78.902344 C 76.335938 78.902344 77.566406 77.773438 76.410156 76.804688 C 76.410156 76.804688 75.578125 75.914062 74.300781 77.230469 L 67.902344 83.15625 C 67.902344 83.15625 67.339844 83.464844 67.101562 83.132812 C 67.101562 83.132812 66.726562 82.890625 67.136719 82.273438 C 67.136719 82.273438 74.386719 74.054688 76.25 71.785156 C 76.25 71.785156 76.921875 70.816406 76.007812 69.980469 C 76.007812 69.980469 75.019531 68.957031 73.660156 70.464844 L 66.425781 79.257812 C 66.425781 79.257812 66.007812 79.746094 65.460938 79.222656 C 65.460938 79.222656 65.050781 78.921875 65.570312 78.328125 L 74.195312 67.382812 C 74.195312 67.382812 75.1875 66.371094 74.203125 65.496094 C 74.203125 65.496094 73.160156 64.566406 71.933594 65.945312 L 62.910156 76.953125 C 62.910156 76.953125 62.519531 77.511719 61.703125 77.179688 C 61.703125 77.179688 61.253906 76.617188 61.925781 75.761719 L 68.289062 66.375 C 68.289062 66.375 69.253906 65.03125 68.015625 64.160156 C 68.015625 64.160156 66.835938 63.246094 65.535156 64.976562 L 54.613281 79.433594 C 54.613281 79.433594 53.125 81.976562 51.238281 79.984375 C 51.238281 79.984375 50.792969 79.085938 50.792969 76.703125 C 50.792969 76.703125 51.238281 72.09375 47.96875 70.707031 C 47.96875 70.707031 45.636719 69.710938 46.425781 73.582031 C 46.425781 73.582031 47.074219 77.101562 47.023438 80.226562 C 47.023438 80.226562 46.183594 87.816406 46.628906 92.972656 C 46.628906 92.972656 46.527344 94.210938 45.734375 95.402344 L 43.027344 97.820312 L 43.023438 97.820312 C 41.777344 97.699219 40.550781 97.527344 39.339844 97.292969 L 39.335938 97.292969 C 26.667969 94.914062 16.007812 86.753906 10.21875 75.667969 L 10.21875 75.664062 C 8.195312 73.691406 6.386719 71.65625 5.015625 70.023438 L 4.34375 69.230469 L 4.34375 69.210938 C 3.570312 68.273438 3.019531 67.5625 2.753906 67.214844 L 1.527344 66.113281 C 5.316406 84.054688 19.480469 98.214844 37.421875 102.003906 L 37.425781 102.003906 C 39.472656 102.4375 41.566406 102.730469 43.699219 102.886719 L 43.703125 102.886719 C 44.808594 102.964844 45.921875 103.007812 47.042969 103.007812 C 48.777344 103.007812 50.492188 102.910156 52.179688 102.722656 L 55.824219 98.675781 C 55.824219 98.675781 57.023438 97.78125 58.738281 96.335938 C 61.289062 94.195312 64.988281 90.835938 67.65625 87.371094 Z M 67.65625 87.371094 " fill-opacity="1" fill-rule="nonzero"/></g><g clip-path="url(#f3f4db38a4)"><path fill="#76ab85" d="M 26.429688 25.621094 L 17.746094 34.085938 C 17.746094 34.085938 16.515625 35.21875 17.675781 36.1875 C 17.675781 36.1875 18.503906 37.078125 19.785156 35.761719 L 26.179688 29.835938 C 26.179688 29.835938 26.746094 29.523438 26.988281 29.855469 C 26.988281 29.855469 27.359375 30.101562 26.953125 30.714844 C 26.953125 30.714844 19.695312 38.9375 17.839844 41.207031 C 17.839844 41.207031 17.160156 42.171875 18.078125 43.011719 C 18.078125 43.011719 19.066406 44.035156 20.421875 42.527344 L 27.65625 33.730469 C 27.65625 33.730469 28.078125 33.246094 28.621094 33.765625 C 28.621094 33.765625 29.03125 34.070312 28.511719 34.660156 L 19.886719 45.609375 C 19.886719 45.609375 18.898438 46.617188 19.882812 47.492188 C 19.882812 47.492188 20.925781 48.425781 22.152344 47.042969 L 31.175781 36.035156 C 31.175781 36.035156 31.5625 35.476562 32.382812 35.8125 C 32.382812 35.8125 32.828125 36.371094 32.15625 37.226562 L 25.792969 46.613281 C 25.792969 46.613281 24.832031 47.957031 26.066406 48.832031 C 26.066406 48.832031 27.246094 49.742188 28.550781 48.015625 L 39.472656 33.558594 C 39.472656 33.558594 40.960938 31.011719 42.84375 33.003906 C 42.84375 33.003906 43.289062 33.90625 43.289062 36.285156 C 43.289062 36.285156 42.84375 40.898438 46.121094 42.285156 C 46.121094 42.285156 48.449219 43.277344 47.65625 39.410156 C 47.65625 39.410156 47.011719 35.886719 47.0625 32.761719 C 47.0625 32.761719 47.90625 25.175781 47.457031 20.019531 C 47.457031 20.019531 47.554688 18.777344 48.351562 17.589844 L 51.058594 15.164062 C 52.304688 15.285156 53.535156 15.460938 54.746094 15.691406 C 67.417969 18.078125 78.078125 26.242188 83.871094 37.332031 L 83.871094 37.335938 C 85.886719 39.304688 87.699219 41.335938 89.070312 42.964844 L 89.738281 43.761719 L 89.738281 43.777344 C 90.511719 44.714844 91.066406 45.429688 91.328125 45.773438 L 92.554688 46.878906 C 88.765625 28.933594 74.605469 14.769531 56.664062 10.988281 C 54.617188 10.554688 52.515625 10.257812 50.378906 10.105469 C 49.277344 10.023438 48.164062 9.984375 47.042969 9.984375 C 45.308594 9.984375 43.59375 10.082031 41.90625 10.265625 L 38.257812 14.316406 C 38.257812 14.316406 37.0625 15.210938 35.34375 16.65625 C 32.796875 18.796875 29.097656 22.15625 26.429688 25.621094 Z M 26.429688 25.621094 " fill-opacity="1" fill-rule="nonzero"/></g><g clip-path="url(#400bb95fcf)"><path fill="#76ab85" d="M 93.273438 51.359375 L 89.222656 47.710938 C 89.222656 47.710938 88.332031 46.519531 86.886719 44.808594 C 86.886719 44.804688 86.886719 44.804688 86.886719 44.800781 C 84.742188 42.253906 81.382812 38.554688 77.914062 35.882812 L 69.449219 27.199219 C 69.449219 27.199219 68.316406 25.96875 67.351562 27.132812 C 67.351562 27.132812 66.457031 27.960938 67.773438 29.238281 L 73.699219 35.632812 C 73.699219 35.632812 74.007812 36.199219 73.675781 36.441406 C 73.675781 36.441406 73.433594 36.8125 72.816406 36.402344 C 72.816406 36.402344 64.601562 29.152344 62.328125 27.292969 C 62.328125 27.292969 61.363281 26.617188 60.527344 27.535156 C 60.527344 27.535156 59.503906 28.519531 61.007812 29.875 L 69.808594 37.109375 C 69.808594 37.109375 70.292969 37.535156 69.765625 38.078125 C 69.765625 38.078125 69.46875 38.488281 68.871094 37.96875 L 57.929688 29.34375 C 57.929688 29.34375 56.917969 28.351562 56.046875 29.335938 C 56.046875 29.335938 55.113281 30.378906 56.492188 31.605469 L 67.503906 40.628906 C 67.503906 40.628906 68.058594 41.015625 67.722656 41.835938 C 67.722656 41.835938 67.167969 42.28125 66.3125 41.609375 L 56.921875 35.246094 C 56.921875 35.246094 55.578125 34.285156 54.707031 35.523438 C 54.707031 35.523438 53.792969 36.703125 55.523438 38.003906 L 69.984375 48.925781 C 69.984375 48.925781 72.527344 50.417969 70.535156 52.296875 C 70.535156 52.296875 69.632812 52.746094 67.253906 52.746094 C 67.253906 52.746094 62.640625 52.296875 61.25 55.574219 C 61.25 55.574219 60.261719 57.90625 64.128906 57.109375 C 64.128906 57.109375 67.648438 56.464844 70.773438 56.515625 C 70.773438 56.515625 78.359375 57.359375 83.519531 56.914062 C 83.519531 56.914062 84.761719 57.015625 85.949219 57.804688 L 88.371094 60.511719 L 88.371094 60.515625 C 88.25 61.765625 88.074219 62.988281 87.84375 64.203125 L 87.84375 64.207031 C 85.460938 76.871094 77.304688 87.523438 66.222656 93.316406 L 66.21875 93.316406 C 64.246094 95.335938 62.210938 97.148438 60.574219 98.519531 C 59.234375 99.644531 58.203125 100.453125 57.761719 100.789062 L 56.664062 102.007812 C 74.609375 98.21875 88.765625 84.0625 92.550781 66.117188 C 92.984375 64.070312 93.28125 61.96875 93.433594 59.835938 L 93.433594 59.832031 C 93.515625 58.730469 93.554688 57.621094 93.554688 56.496094 C 93.554688 54.761719 93.460938 53.046875 93.273438 51.359375 Z M 93.273438 51.359375 " fill-opacity="1" fill-rule="nonzero"/></g><g clip-path="url(#fa0c477e1f)"><path fill="#76ab85" d="M 7.195312 68.183594 C 7.195312 68.1875 7.195312 68.1875 7.195312 68.191406 C 9.339844 70.738281 12.699219 74.4375 16.167969 77.105469 L 24.636719 85.792969 C 24.636719 85.792969 25.765625 87.023438 26.730469 85.859375 C 26.730469 85.859375 27.625 85.03125 26.308594 83.753906 L 20.382812 77.355469 C 20.382812 77.355469 20.074219 76.792969 20.40625 76.550781 C 20.40625 76.550781 20.652344 76.175781 21.265625 76.589844 C 21.265625 76.589844 29.484375 83.839844 31.753906 85.699219 C 31.753906 85.699219 32.722656 86.375 33.558594 85.457031 C 33.558594 85.457031 34.582031 84.476562 33.074219 83.117188 L 24.277344 75.882812 C 24.277344 75.882812 23.792969 75.457031 24.316406 74.914062 C 24.316406 74.914062 24.613281 74.503906 25.210938 75.023438 L 36.15625 83.648438 C 36.15625 83.648438 37.167969 84.640625 38.039062 83.65625 C 38.039062 83.65625 38.96875 82.613281 37.59375 81.386719 L 26.585938 72.363281 C 26.585938 72.363281 26.023438 71.976562 26.359375 71.15625 C 26.359375 71.15625 26.914062 70.710938 27.773438 71.382812 L 37.160156 77.746094 C 37.160156 77.746094 38.503906 78.707031 39.375 77.46875 C 39.375 77.46875 40.289062 76.289062 38.558594 74.988281 L 24.105469 64.066406 C 24.105469 64.066406 21.554688 62.574219 23.546875 60.691406 C 23.546875 60.691406 24.449219 60.242188 26.832031 60.242188 C 26.832031 60.242188 31.441406 60.691406 32.832031 57.417969 C 32.832031 57.417969 33.824219 55.085938 29.957031 55.882812 C 29.957031 55.882812 26.433594 56.527344 23.308594 56.476562 C 23.308594 56.476562 15.722656 55.632812 10.5625 56.078125 C 10.5625 56.078125 9.328125 55.976562 8.136719 55.1875 L 5.714844 52.476562 C 5.835938 51.226562 6.007812 50 6.238281 48.785156 C 8.621094 36.117188 16.785156 25.457031 27.878906 19.664062 C 29.847656 17.648438 31.878906 15.84375 33.507812 14.472656 C 34.847656 13.347656 35.878906 12.542969 36.320312 12.203125 L 37.417969 10.984375 C 19.476562 14.773438 5.320312 28.933594 1.53125 46.875 L 1.53125 46.878906 C 1.097656 48.921875 0.800781 51.023438 0.648438 53.15625 L 0.648438 53.160156 C 0.566406 54.261719 0.527344 55.375 0.527344 56.496094 C 0.527344 58.230469 0.621094 59.945312 0.808594 61.632812 L 4.859375 65.28125 C 4.859375 65.28125 5.75 66.46875 7.195312 68.183594 Z M 7.195312 68.183594 " fill-opacity="1" fill-rule="nonzero"/></g><g fill="#ffffff" fill-opacity="1"><g transform="translate(111.015422, 51.873848)"><g><path d="M 10.890625 0 L 10.890625 -23.828125 L 1.296875 -23.828125 L 1.296875 -30.265625 L 27.375 -30.265625 L 27.375 -23.828125 L 17.765625 -23.828125 L 17.765625 0 Z M 10.890625 0 "/></g></g></g><g fill="#ffffff" fill-opacity="1"><g transform="translate(139.675791, 51.873848)"><g><path d="M 22.359375 0 L 22.359375 -12.1875 L 10.5 -12.1875 L 10.5 0 L 3.625 0 L 3.625 -30.265625 L 10.5 -30.265625 L 10.5 -18.640625 L 22.359375 -18.640625 L 22.359375 -30.265625 L 29.21875 -30.265625 L 29.21875 0 Z M 22.359375 0 "/></g></g></g><g fill="#ffffff" fill-opacity="1"><g transform="translate(172.529302, 51.873848)"><g><path d="M 3.625 0 L 3.625 -30.265625 L 23.515625 -30.265625 L 23.515625 -24.46875 L 10.46875 -24.46875 L 10.46875 -18.203125 L 22.359375 -18.203125 L 22.359375 -12.453125 L 10.46875 -12.453125 L 10.46875 -5.84375 L 24 -5.84375 L 24 0 Z M 3.625 0 "/></g></g></g><g fill="#ffffff" fill-opacity="1"><g transform="translate(198.725656, 51.873848)"><g/></g></g><g fill="#ffffff" fill-opacity="1"><g transform="translate(208.884311, 51.873848)"><g><path d="M 17.71875 0.609375 C 14.632812 0.609375 11.894531 -0.0625 9.5 -1.40625 C 7.113281 -2.75 5.242188 -4.597656 3.890625 -6.953125 C 2.535156 -9.316406 1.859375 -12.039062 1.859375 -15.125 C 1.859375 -18.21875 2.523438 -20.941406 3.859375 -23.296875 C 5.203125 -25.660156 7.0625 -27.515625 9.4375 -28.859375 C 11.820312 -30.203125 14.539062 -30.875 17.59375 -30.875 C 20.039062 -30.875 22.300781 -30.441406 24.375 -29.578125 C 26.457031 -28.710938 28.222656 -27.492188 29.671875 -25.921875 C 31.128906 -24.347656 32.160156 -22.492188 32.765625 -20.359375 L 25.375 -20.359375 C 24.65625 -21.691406 23.625 -22.722656 22.28125 -23.453125 C 20.945312 -24.191406 19.425781 -24.5625 17.71875 -24.5625 C 15.96875 -24.5625 14.414062 -24.15625 13.0625 -23.34375 C 11.707031 -22.539062 10.644531 -21.429688 9.875 -20.015625 C 9.113281 -18.609375 8.734375 -16.976562 8.734375 -15.125 C 8.734375 -13.3125 9.109375 -11.695312 9.859375 -10.28125 C 10.609375 -8.875 11.660156 -7.757812 13.015625 -6.9375 C 14.367188 -6.113281 15.96875 -5.703125 17.8125 -5.703125 C 20.03125 -5.703125 21.875 -6.265625 23.34375 -7.390625 C 24.8125 -8.515625 25.765625 -10 26.203125 -11.84375 L 16.390625 -11.84375 L 16.390625 -17.15625 L 33.46875 -17.15625 C 33.632812 -14.5625 33.378906 -12.179688 32.703125 -10.015625 C 32.023438 -7.859375 30.988281 -5.976562 29.59375 -4.375 C 28.195312 -2.78125 26.492188 -1.550781 24.484375 -0.6875 C 22.484375 0.175781 20.226562 0.609375 17.71875 0.609375 Z M 17.71875 0.609375 "/></g></g></g><g fill="#ffffff" fill-opacity="1"><g transform="translate(244.158612, 51.873848)"><g><path d="M 0.390625 0 L 12.40625 -30.265625 L 19.15625 -30.265625 L 31.171875 0 L 23.828125 0 L 21.796875 -5.234375 L 9.765625 -5.234375 L 7.734375 0 Z M 11.546875 -10.640625 L 20.0625 -10.640625 L 15.78125 -21.703125 Z M 11.546875 -10.640625 "/></g></g></g><g fill="#ffffff" fill-opacity="1"><g transform="translate(275.715267, 51.873848)"><g><path d="M 3.625 0 L 3.625 -30.265625 L 10.5 -30.265625 L 10.5 0 Z M 3.625 0 "/></g></g></g><g fill="#ffffff" fill-opacity="1"><g transform="translate(289.850918, 51.873848)"><g><path d="M 0.390625 0 L 12.40625 -30.265625 L 19.15625 -30.265625 L 31.171875 0 L 23.828125 0 L 21.796875 -5.234375 L 9.765625 -5.234375 L 7.734375 0 Z M 11.546875 -10.640625 L 20.0625 -10.640625 L 15.78125 -21.703125 Z M 11.546875 -10.640625 "/></g></g></g><g fill="#ffffff" fill-opacity="1"><g transform="translate(122.019748, 89.486607)"><g><path d="M 0.546875 0 L 7.671875 -17.21875 L 9.109375 -17.21875 L 16.234375 0 L 14.671875 0 L 12.875 -4.328125 L 3.90625 -4.328125 L 2.140625 0 Z M 4.5 -5.703125 L 12.296875 -5.703125 L 8.390625 -15.1875 Z M 4.5 -5.703125 "/></g></g></g><g fill="#ffffff" fill-opacity="1"><g transform="translate(148.234684, 89.486607)"><g><path d="M 2.78125 0 L 2.78125 -17.21875 L 4.28125 -17.21875 L 4.28125 -1.421875 L 13.015625 -1.421875 L 13.015625 0 Z M 2.78125 0 "/></g></g></g><g fill="#ffffff" fill-opacity="1"><g transform="translate(171.496412, 89.486607)"><g><path d="M 2.78125 0 L 2.78125 -17.21875 L 4.28125 -17.21875 L 4.28125 -1.421875 L 13.015625 -1.421875 L 13.015625 0 Z M 2.78125 0 "/></g></g></g><g fill="#ffffff" fill-opacity="1"><g transform="translate(194.758141, 89.486607)"><g><path d="M 2.78125 0 L 2.78125 -17.21875 L 4.28125 -17.21875 L 4.28125 0 Z M 2.78125 0 "/></g></g></g><g fill="#ffffff" fill-opacity="1"><g transform="translate(211.227504, 89.486607)"><g><path d="M 0.546875 0 L 7.671875 -17.21875 L 9.109375 -17.21875 L 16.234375 0 L 14.671875 0 L 12.875 -4.328125 L 3.90625 -4.328125 L 2.140625 0 Z M 4.5 -5.703125 L 12.296875 -5.703125 L 8.390625 -15.1875 Z M 4.5 -5.703125 "/></g></g></g><g fill="#ffffff" fill-opacity="1"><g transform="translate(237.442435, 89.486607)"><g><path d="M 2.78125 0 L 2.78125 -17.21875 L 4.1875 -17.21875 L 14.671875 -2.578125 L 14.671875 -17.21875 L 16.140625 -17.21875 L 16.140625 0 L 14.734375 0 L 4.25 -14.671875 L 4.25 0 Z M 2.78125 0 "/></g></g></g><g fill="#ffffff" fill-opacity="1"><g transform="translate(265.773839, 89.486607)"><g><path d="M 10.3125 0.3125 C 8.625 0.3125 7.125 -0.0664062 5.8125 -0.828125 C 4.5 -1.585938 3.460938 -2.640625 2.703125 -3.984375 C 1.953125 -5.328125 1.578125 -6.867188 1.578125 -8.609375 C 1.578125 -10.367188 1.953125 -11.914062 2.703125 -13.25 C 3.460938 -14.582031 4.5 -15.628906 5.8125 -16.390625 C 7.125 -17.160156 8.625 -17.546875 10.3125 -17.546875 C 11.625 -17.546875 12.835938 -17.300781 13.953125 -16.8125 C 15.066406 -16.332031 16.023438 -15.65625 16.828125 -14.78125 C 17.628906 -13.90625 18.222656 -12.859375 18.609375 -11.640625 L 17.03125 -11.640625 C 16.539062 -13.003906 15.695312 -14.078125 14.5 -14.859375 C 13.300781 -15.648438 11.910156 -16.046875 10.328125 -16.046875 C 8.941406 -16.046875 7.703125 -15.734375 6.609375 -15.109375 C 5.515625 -14.484375 4.65625 -13.613281 4.03125 -12.5 C 3.40625 -11.382812 3.09375 -10.085938 3.09375 -8.609375 C 3.09375 -7.148438 3.40625 -5.859375 4.03125 -4.734375 C 4.65625 -3.609375 5.515625 -2.734375 6.609375 -2.109375 C 7.703125 -1.492188 8.941406 -1.1875 10.328125 -1.1875 C 11.941406 -1.1875 13.367188 -1.59375 14.609375 -2.40625 C 15.847656 -3.226562 16.703125 -4.351562 17.171875 -5.78125 L 18.75 -5.78125 C 18.40625 -4.550781 17.820312 -3.476562 17 -2.5625 C 16.1875 -1.644531 15.207031 -0.9375 14.0625 -0.4375 C 12.925781 0.0625 11.675781 0.3125 10.3125 0.3125 Z M 10.3125 0.3125 "/></g></g></g><g fill="#ffffff" fill-opacity="1"><g transform="translate(295.409559, 89.486607)"><g><path d="M 2.78125 0 L 2.78125 -17.21875 L 12.921875 -17.21875 L 12.921875 -15.828125 L 4.28125 -15.828125 L 4.28125 -9.46875 L 12.28125 -9.46875 L 12.28125 -8.09375 L 4.28125 -8.09375 L 4.28125 -1.40625 L 13.1875 -1.40625 L 13.1875 0 Z M 2.78125 0 "/></g></g></g></svg>