<svg xmlns="http://www.w3.org/2000/svg" xmlns:xlink="http://www.w3.org/1999/xlink" width="323" zoomAndPan="magnify" viewBox="0 0 242.25 250.500001" height="334" preserveAspectRatio="xMidYMid meet" version="1.0"><defs><g/><clipPath id="858d44fd09"><path d="M 47 146 L 169 146 L 169 209.8125 L 47 209.8125 Z M 47 146 " clip-rule="nonzero"/></clipPath><clipPath id="7f3066693c"><path d="M 72 60.273438 L 194 60.273438 L 194 124 L 72 124 Z M 72 60.273438 " clip-rule="nonzero"/></clipPath><clipPath id="f5be7f1524"><path d="M 132 87 L 195.21875 87 L 195.21875 209 L 132 209 Z M 132 87 " clip-rule="nonzero"/></clipPath><clipPath id="4712c12783"><path d="M 45.683594 61 L 109 61 L 109 184 L 45.683594 184 Z M 45.683594 61 " clip-rule="nonzero"/></clipPath></defs><g clip-path="url(#858d44fd09)"><path fill="#76ab85" d="M 153.585938 184.664062 L 167.542969 171.054688 C 167.542969 171.054688 169.519531 169.238281 167.65625 167.679688 C 167.65625 167.679688 166.320312 166.25 164.265625 168.363281 L 153.984375 177.890625 C 153.984375 177.890625 153.078125 178.390625 152.695312 177.855469 C 152.695312 177.855469 152.09375 177.460938 152.75 176.476562 C 152.75 176.476562 164.410156 163.257812 167.398438 159.609375 C 167.398438 159.609375 168.480469 158.058594 167.011719 156.710938 C 167.011719 156.710938 165.421875 155.066406 163.242188 157.492188 L 151.613281 171.628906 C 151.613281 171.628906 150.9375 172.40625 150.058594 171.570312 C 150.058594 171.570312 149.402344 171.082031 150.238281 170.132812 L 164.101562 152.535156 C 164.101562 152.535156 165.691406 150.914062 164.109375 149.503906 C 164.109375 149.503906 162.433594 148.007812 160.460938 150.226562 L 145.957031 167.921875 C 145.957031 167.921875 145.332031 168.820312 144.023438 168.28125 C 144.023438 168.28125 143.300781 167.382812 144.375 166.007812 L 154.609375 150.917969 C 154.609375 150.917969 156.15625 148.757812 154.167969 147.355469 C 154.167969 147.355469 152.269531 145.886719 150.179688 148.667969 L 132.621094 171.90625 C 132.621094 171.90625 130.226562 175.996094 127.199219 172.792969 C 127.199219 172.792969 126.480469 171.347656 126.480469 167.519531 C 126.480469 167.519531 127.199219 160.105469 121.941406 157.878906 C 121.941406 157.878906 118.191406 156.28125 119.464844 162.5 C 119.464844 162.5 120.5 168.160156 120.421875 173.183594 C 120.421875 173.183594 119.070312 185.378906 119.785156 193.667969 C 119.785156 193.667969 119.625 195.660156 118.347656 197.574219 L 114 201.464844 L 113.996094 201.464844 C 111.988281 201.269531 110.019531 200.988281 108.070312 200.617188 L 108.066406 200.617188 C 87.703125 196.789062 70.570312 183.671875 61.261719 165.851562 L 61.261719 165.847656 C 58.011719 162.679688 55.101562 159.40625 52.894531 156.785156 L 51.820312 155.507812 L 51.820312 155.476562 C 50.578125 153.96875 49.6875 152.824219 49.265625 152.269531 L 47.292969 150.492188 C 53.382812 179.335938 76.148438 202.097656 104.988281 208.1875 L 104.992188 208.1875 C 108.289062 208.882812 111.652344 209.355469 115.082031 209.601562 L 115.085938 209.601562 C 116.863281 209.734375 118.648438 209.796875 120.453125 209.796875 C 123.242188 209.796875 126 209.640625 128.707031 209.34375 L 134.570312 202.835938 C 134.570312 202.835938 136.492188 201.398438 139.253906 199.074219 C 143.351562 195.636719 149.300781 190.234375 153.585938 184.664062 Z M 153.585938 184.664062 " fill-opacity="1" fill-rule="nonzero"/></g><g clip-path="url(#7f3066693c)"><path fill="#76ab85" d="M 87.320312 85.40625 L 73.363281 99.015625 C 73.363281 99.015625 71.386719 100.832031 73.25 102.390625 C 73.25 102.390625 74.582031 103.824219 76.640625 101.707031 L 86.921875 92.183594 C 86.921875 92.183594 87.824219 91.683594 88.214844 92.214844 C 88.214844 92.214844 88.816406 92.613281 88.160156 93.597656 C 88.160156 93.597656 76.496094 106.8125 73.511719 110.460938 C 73.511719 110.460938 72.421875 112.015625 73.894531 113.359375 C 73.894531 113.359375 75.480469 115.003906 77.664062 112.582031 L 89.292969 98.445312 C 89.292969 98.445312 89.96875 97.664062 90.84375 98.5 C 90.84375 98.5 91.503906 98.988281 90.667969 99.9375 L 76.804688 117.535156 C 76.804688 117.535156 75.210938 119.15625 76.800781 120.566406 C 76.800781 120.566406 78.472656 122.0625 80.441406 119.84375 L 94.945312 102.148438 C 94.945312 102.148438 95.570312 101.25 96.886719 101.789062 C 96.886719 101.789062 97.605469 102.6875 96.527344 104.0625 L 86.296875 119.152344 C 86.296875 119.152344 84.75 121.3125 86.738281 122.714844 C 86.738281 122.714844 88.632812 124.183594 90.730469 121.402344 L 108.289062 98.164062 C 108.289062 98.164062 110.675781 94.074219 113.707031 97.277344 C 113.707031 97.277344 114.421875 98.726562 114.421875 102.550781 C 114.421875 102.550781 113.707031 109.964844 118.972656 112.191406 C 118.972656 112.191406 122.71875 113.792969 121.441406 107.570312 C 121.441406 107.570312 120.402344 101.910156 120.484375 96.886719 C 120.484375 96.886719 121.839844 84.691406 121.117188 76.402344 C 121.117188 76.402344 121.277344 74.410156 122.554688 72.496094 L 126.910156 68.601562 C 128.914062 68.796875 130.890625 69.078125 132.839844 69.449219 C 153.207031 73.28125 170.339844 86.40625 179.648438 104.230469 L 179.648438 104.238281 C 182.894531 107.398438 185.804688 110.664062 188.007812 113.289062 L 189.085938 114.566406 L 189.085938 114.59375 C 190.328125 116.101562 191.214844 117.246094 191.640625 117.804688 L 193.609375 119.578125 C 187.519531 90.730469 164.757812 67.96875 135.921875 61.890625 C 132.625 61.191406 129.253906 60.714844 125.816406 60.46875 C 124.046875 60.335938 122.257812 60.273438 120.457031 60.273438 C 117.664062 60.273438 114.910156 60.429688 112.195312 60.726562 L 106.335938 67.234375 C 106.335938 67.234375 104.410156 68.671875 101.648438 70.996094 C 97.554688 74.4375 91.605469 79.839844 87.320312 85.40625 Z M 87.320312 85.40625 " fill-opacity="1" fill-rule="nonzero"/></g><g clip-path="url(#f5be7f1524)"><path fill="#76ab85" d="M 194.765625 126.78125 L 188.253906 120.917969 C 188.253906 120.917969 186.820312 119.003906 184.5 116.25 C 184.5 116.242188 184.5 116.242188 184.5 116.238281 C 181.054688 112.140625 175.652344 106.195312 170.078125 101.90625 L 156.472656 87.945312 C 156.472656 87.945312 154.652344 85.96875 153.097656 87.835938 C 153.097656 87.835938 151.660156 89.171875 153.773438 91.222656 L 163.300781 101.503906 C 163.300781 101.503906 163.800781 102.414062 163.265625 102.796875 C 163.265625 102.796875 162.878906 103.398438 161.886719 102.742188 C 161.886719 102.742188 148.675781 91.082031 145.027344 88.09375 C 145.027344 88.09375 143.472656 87.011719 142.128906 88.484375 C 142.128906 88.484375 140.484375 90.0625 142.902344 92.246094 L 157.042969 103.875 C 157.042969 103.875 157.824219 104.558594 156.980469 105.433594 C 156.980469 105.433594 156.5 106.089844 155.542969 105.253906 L 137.953125 91.394531 C 137.953125 91.394531 136.328125 89.792969 134.925781 91.382812 C 134.925781 91.382812 133.429688 93.054688 135.640625 95.03125 L 153.339844 109.527344 C 153.339844 109.527344 154.234375 110.152344 153.695312 111.472656 C 153.695312 111.472656 152.800781 112.1875 151.425781 111.109375 L 136.332031 100.878906 C 136.332031 100.878906 134.171875 99.332031 132.777344 101.324219 C 132.777344 101.324219 131.304688 103.222656 134.089844 105.3125 L 157.328125 122.871094 C 157.328125 122.871094 161.417969 125.265625 158.214844 128.289062 C 158.214844 128.289062 156.765625 129.011719 152.941406 129.011719 C 152.941406 129.011719 145.527344 128.289062 143.292969 133.554688 C 143.292969 133.554688 141.699219 137.300781 147.914062 136.023438 C 147.914062 136.023438 153.574219 134.988281 158.597656 135.066406 C 158.597656 135.066406 170.792969 136.425781 179.089844 135.707031 C 179.089844 135.707031 181.082031 135.867188 182.996094 137.140625 L 186.882812 141.492188 L 186.882812 141.5 C 186.691406 143.503906 186.410156 145.472656 186.035156 147.421875 L 186.035156 147.429688 C 182.210938 167.789062 169.097656 184.910156 151.28125 194.222656 L 151.277344 194.222656 C 148.105469 197.472656 144.832031 200.378906 142.203125 202.585938 C 140.050781 204.398438 138.394531 205.691406 137.683594 206.234375 L 135.921875 208.195312 C 164.761719 202.105469 187.519531 179.347656 193.605469 150.503906 L 193.605469 150.5 C 194.304688 147.210938 194.777344 143.835938 195.027344 140.40625 L 195.027344 140.398438 C 195.15625 138.628906 195.21875 136.84375 195.21875 135.039062 C 195.21875 132.246094 195.066406 129.492188 194.765625 126.78125 Z M 194.765625 126.78125 " fill-opacity="1" fill-rule="nonzero"/></g><g clip-path="url(#4712c12783)"><path fill="#76ab85" d="M 56.402344 153.824219 C 56.402344 153.832031 56.402344 153.832031 56.402344 153.835938 C 59.847656 157.933594 65.25 163.878906 70.824219 168.167969 L 84.433594 182.128906 C 84.433594 182.128906 86.25 184.105469 87.804688 182.238281 C 87.804688 182.238281 89.242188 180.902344 87.128906 178.851562 L 77.601562 168.570312 C 77.601562 168.570312 77.101562 167.660156 77.636719 167.273438 C 77.636719 167.273438 78.03125 166.671875 79.015625 167.332031 C 79.015625 167.332031 92.234375 178.988281 95.875 181.980469 C 95.875 181.980469 97.433594 183.0625 98.78125 181.589844 C 98.78125 181.589844 100.421875 180.011719 98 177.828125 L 83.859375 166.199219 C 83.859375 166.199219 83.085938 165.515625 83.921875 164.640625 C 83.921875 164.640625 84.402344 163.984375 85.359375 164.820312 L 102.957031 178.679688 C 102.957031 178.679688 104.578125 180.28125 105.980469 178.691406 C 105.980469 178.691406 107.476562 177.019531 105.265625 175.042969 L 87.570312 160.546875 C 87.570312 160.546875 86.667969 159.921875 87.207031 158.601562 C 87.207031 158.601562 88.101562 157.886719 89.484375 158.964844 L 104.570312 169.195312 C 104.570312 169.195312 106.730469 170.742188 108.128906 168.746094 C 108.128906 168.746094 109.601562 166.851562 106.816406 164.761719 L 83.582031 147.203125 C 83.582031 147.203125 79.488281 144.808594 82.6875 141.785156 C 82.6875 141.785156 84.136719 141.0625 87.964844 141.0625 C 87.964844 141.0625 95.378906 141.785156 97.613281 136.519531 C 97.613281 136.519531 99.203125 132.773438 92.988281 134.050781 C 92.988281 134.050781 87.328125 135.085938 82.304688 135.007812 C 82.304688 135.007812 70.113281 133.648438 61.816406 134.363281 C 61.816406 134.363281 59.828125 134.203125 57.914062 132.933594 L 54.019531 128.574219 C 54.214844 126.566406 54.496094 124.59375 54.863281 122.644531 C 58.691406 102.277344 71.816406 85.144531 89.648438 75.835938 C 92.816406 72.59375 96.082031 69.6875 98.699219 67.488281 C 100.851562 65.679688 102.507812 64.382812 103.21875 63.839844 L 104.980469 61.882812 C 76.144531 67.972656 53.386719 90.730469 47.296875 119.570312 L 47.296875 119.578125 C 46.597656 122.863281 46.125 126.238281 45.875 129.667969 L 45.875 129.675781 C 45.746094 131.445312 45.683594 133.234375 45.683594 135.035156 C 45.683594 137.828125 45.835938 140.582031 46.136719 143.292969 L 52.648438 149.15625 C 52.648438 149.15625 54.082031 151.070312 56.402344 153.824219 Z M 56.402344 153.824219 " fill-opacity="1" fill-rule="nonzero"/></g><g fill="#ffffff" fill-opacity="1"><g transform="translate(44.420591, 98.627658)"><g><path d="M 6.359375 -8.890625 L -13.0625 -22.78125 L -18.671875 -14.953125 L -23.921875 -18.703125 L -8.71875 -39.9375 L -3.46875 -36.1875 L -9.0625 -28.375 L 10.359375 -14.484375 Z M 6.359375 -8.890625 "/></g></g></g><g fill="#ffffff" fill-opacity="1"><g transform="translate(58.085607, 77.857133)"><g><path d="M 18.125 -13.171875 L 10.9375 -23.0625 L 1.328125 -16.078125 L 8.515625 -6.1875 L 2.9375 -2.140625 L -14.890625 -26.671875 L -9.3125 -30.71875 L -2.453125 -21.296875 L 7.15625 -28.28125 L 0.296875 -37.703125 L 5.875 -41.75 L 23.703125 -17.21875 Z M 18.125 -13.171875 "/></g></g></g><g fill="#ffffff" fill-opacity="1"><g transform="translate(81.534177, 60.713413)"><g><path d="M 3.453125 -1.140625 L -6.078125 -29.9375 L 12.859375 -36.203125 L 14.6875 -30.6875 L 2.25 -26.578125 L 4.21875 -20.609375 L 15.53125 -24.359375 L 17.34375 -18.890625 L 6.03125 -15.140625 L 8.109375 -8.84375 L 20.984375 -13.109375 L 22.828125 -7.5625 Z M 3.453125 -1.140625 "/></g></g></g><g fill="#ffffff" fill-opacity="1"><g transform="translate(104.226201, 53.751551)"><g/></g></g><g fill="#ffffff" fill-opacity="1"><g transform="translate(111.267771, 50.975252)"><g><path d="M 17.59375 2.515625 C 14.519531 2.179688 11.863281 1.21875 9.625 -0.375 C 7.394531 -1.96875 5.726562 -4.015625 4.625 -6.515625 C 3.519531 -9.015625 3.132812 -11.800781 3.46875 -14.875 C 3.800781 -17.945312 4.765625 -20.585938 6.359375 -22.796875 C 7.953125 -25.003906 10.003906 -26.644531 12.515625 -27.71875 C 15.035156 -28.800781 17.816406 -29.179688 20.859375 -28.859375 C 23.296875 -28.585938 25.503906 -27.910156 27.484375 -26.828125 C 29.460938 -25.742188 31.09375 -24.335938 32.375 -22.609375 C 33.65625 -20.890625 34.476562 -18.9375 34.84375 -16.75 L 27.484375 -17.546875 C 26.898438 -18.953125 25.976562 -20.09375 24.71875 -20.96875 C 23.46875 -21.84375 21.992188 -22.375 20.296875 -22.5625 C 18.546875 -22.75 16.953125 -22.515625 15.515625 -21.859375 C 14.085938 -21.203125 12.914062 -20.207031 12 -18.875 C 11.082031 -17.550781 10.523438 -15.972656 10.328125 -14.140625 C 10.140625 -12.328125 10.335938 -10.675781 10.921875 -9.1875 C 11.515625 -7.695312 12.441406 -6.46875 13.703125 -5.5 C 14.960938 -4.539062 16.507812 -3.960938 18.34375 -3.765625 C 20.5625 -3.523438 22.460938 -3.882812 24.046875 -4.84375 C 25.640625 -5.8125 26.75 -7.191406 27.375 -8.984375 L 17.609375 -10.046875 L 18.171875 -15.34375 L 35.1875 -13.5 C 35.082031 -10.882812 34.578125 -8.535156 33.671875 -6.453125 C 32.765625 -4.367188 31.53125 -2.609375 29.96875 -1.171875 C 28.40625 0.265625 26.578125 1.304688 24.484375 1.953125 C 22.390625 2.597656 20.09375 2.785156 17.59375 2.515625 Z M 17.59375 2.515625 "/></g></g></g><g fill="#ffffff" fill-opacity="1"><g transform="translate(142.222093, 53.894476)"><g><path d="M 0.34375 0.171875 L 24.546875 -21.734375 L 30.609375 -18.75 L 28.03125 13.78125 L 21.421875 10.53125 L 21.90625 4.921875 L 11.109375 -0.390625 L 6.953125 3.421875 Z M 15.078125 -4.453125 L 22.75 -0.6875 L 23.78125 -12.53125 Z M 15.078125 -4.453125 "/></g></g></g><g fill="#ffffff" fill-opacity="1"><g transform="translate(167.474709, 67.062815)"><g><path d="M 2.796875 2.328125 L 22.234375 -20.953125 L 27.515625 -16.53125 L 8.078125 6.75 Z M 2.796875 2.328125 "/></g></g></g><g fill="#ffffff" fill-opacity="1"><g transform="translate(177.013965, 73.203083)"><g><path d="M 0.234375 0.3125 L 31.78125 -8.015625 L 35.78125 -2.578125 L 18.546875 25.125 L 14.1875 19.203125 L 17.1875 14.453125 L 10.03125 4.75 L 4.609375 6.234375 Z M 15.453125 2.96875 L 20.515625 9.84375 L 26.890625 -0.203125 Z M 15.453125 2.96875 "/></g></g></g><g fill="#ffffff" fill-opacity="1"><g transform="translate(32.82067, 177.146208)"><g><path d="M 0.28125 0.46875 L 18.78125 -2.125 L 19.5 -0.90625 L 8.265625 14.03125 L 7.46875 12.671875 L 10.296875 8.921875 L 5.734375 1.171875 L 1.09375 1.84375 Z M 7.21875 0.984375 L 11.1875 7.71875 L 17.375 -0.46875 Z M 7.21875 0.984375 "/></g></g></g><g fill="#ffffff" fill-opacity="1"><g transform="translate(48.496679, 200.336626)"><g><path d="M 2 1.921875 L 13.953125 -10.546875 L 15.046875 -9.5 L 4.09375 1.9375 L 10.421875 8 L 9.421875 9.03125 Z M 2 1.921875 "/></g></g></g><g fill="#ffffff" fill-opacity="1"><g transform="translate(67.455639, 216.543915)"><g><path d="M 2.4375 1.34375 L 10.8125 -13.75 L 12.125 -13 L 4.453125 0.84375 L 12.109375 5.078125 L 11.40625 6.328125 Z M 2.4375 1.34375 "/></g></g></g><g fill="#ffffff" fill-opacity="1"><g transform="translate(89.73914, 227.13559)"><g><path d="M 2.671875 0.78125 L 7.5625 -15.78125 L 9.015625 -15.34375 L 4.125 1.21875 Z M 2.671875 0.78125 "/></g></g></g><g fill="#ffffff" fill-opacity="1"><g transform="translate(107.232072, 231.548207)"><g><path d="M 0.546875 0.03125 L 8.5625 -16.859375 L 9.984375 -16.78125 L 16.265625 0.828125 L 14.6875 0.75 L 13.109375 -3.6875 L 4.140625 -4.140625 L 2.140625 0.109375 Z M 4.8125 -5.484375 L 12.609375 -5.09375 L 9.15625 -14.78125 Z M 4.8125 -5.484375 "/></g></g></g><g fill="#ffffff" fill-opacity="1"><g transform="translate(135.450626, 231.417699)"><g><path d="M 2.6875 -0.6875 L -1.609375 -17.40625 L -0.234375 -17.765625 L 13.59375 -6.171875 L 9.9375 -20.375 L 11.375 -20.75 L 15.671875 -4.03125 L 14.3125 -3.671875 L 0.46875 -15.296875 L 4.125 -1.0625 Z M 2.6875 -0.6875 "/></g></g></g><g fill="#ffffff" fill-opacity="1"><g transform="translate(164.478484, 222.163643)"><g><path d="M 8.875 -5.3125 C 7.445312 -4.394531 5.972656 -3.898438 4.453125 -3.828125 C 2.929688 -3.765625 1.488281 -4.097656 0.125 -4.828125 C -1.238281 -5.554688 -2.394531 -6.65625 -3.34375 -8.125 C -4.300781 -9.601562 -4.820312 -11.109375 -4.90625 -12.640625 C -5 -14.171875 -4.695312 -15.613281 -4 -16.96875 C -3.3125 -18.332031 -2.253906 -19.472656 -0.828125 -20.390625 C 0.265625 -21.109375 1.414062 -21.5625 2.625 -21.75 C 3.832031 -21.945312 5.007812 -21.890625 6.15625 -21.578125 C 7.3125 -21.273438 8.382812 -20.71875 9.375 -19.90625 L 8.046875 -19.0625 C 6.890625 -19.9375 5.585938 -20.378906 4.140625 -20.390625 C 2.703125 -20.410156 1.316406 -19.992188 -0.015625 -19.140625 C -1.179688 -18.378906 -2.054688 -17.441406 -2.640625 -16.328125 C -3.222656 -15.210938 -3.472656 -14.015625 -3.390625 -12.734375 C -3.304688 -11.453125 -2.863281 -10.191406 -2.0625 -8.953125 C -1.269531 -7.710938 -0.304688 -6.789062 0.828125 -6.1875 C 1.960938 -5.582031 3.160156 -5.3125 4.421875 -5.375 C 5.679688 -5.4375 6.894531 -5.847656 8.0625 -6.609375 C 9.425781 -7.484375 10.40625 -8.601562 11 -9.96875 C 11.59375 -11.332031 11.703125 -12.742188 11.328125 -14.203125 L 12.65625 -15.046875 C 13.039062 -13.828125 13.132812 -12.609375 12.9375 -11.390625 C 12.75 -10.171875 12.3125 -9.035156 11.625 -7.984375 C 10.9375 -6.941406 10.019531 -6.050781 8.875 -5.3125 Z M 8.875 -5.3125 "/></g></g></g><g fill="#ffffff" fill-opacity="1"><g transform="translate(189.83569, 203.355488)"><g><path d="M 1.796875 -2.125 L -11.40625 -13.234375 L -4.859375 -21.015625 L -3.796875 -20.125 L -9.375 -13.5 L -4.5 -9.390625 L 0.65625 -15.53125 L 1.71875 -14.640625 L -3.4375 -8.5 L 1.6875 -4.1875 L 7.4375 -11.015625 L 8.515625 -10.109375 Z M 1.796875 -2.125 "/></g></g></g><g fill="#ffffff" fill-opacity="1"><g transform="translate(205.139887, 182.551149)"><g/></g></g></svg>