<svg xmlns="http://www.w3.org/2000/svg" xmlns:xlink="http://www.w3.org/1999/xlink" width="323" zoomAndPan="magnify" viewBox="0 0 242.25 140.249994" height="187" preserveAspectRatio="xMidYMid meet" version="1.0"><defs><g/></defs><g fill="#ffffff" fill-opacity="1"><g transform="translate(15.244959, 51.873848)"><g><path d="M 10.890625 0 L 10.890625 -23.828125 L 1.296875 -23.828125 L 1.296875 -30.265625 L 27.375 -30.265625 L 27.375 -23.828125 L 17.765625 -23.828125 L 17.765625 0 Z M 10.890625 0 "/></g></g></g><g fill="#ffffff" fill-opacity="1"><g transform="translate(43.905328, 51.873848)"><g><path d="M 22.359375 0 L 22.359375 -12.1875 L 10.5 -12.1875 L 10.5 0 L 3.625 0 L 3.625 -30.265625 L 10.5 -30.265625 L 10.5 -18.640625 L 22.359375 -18.640625 L 22.359375 -30.265625 L 29.21875 -30.265625 L 29.21875 0 Z M 22.359375 0 "/></g></g></g><g fill="#ffffff" fill-opacity="1"><g transform="translate(76.758838, 51.873848)"><g><path d="M 3.625 0 L 3.625 -30.265625 L 23.515625 -30.265625 L 23.515625 -24.46875 L 10.46875 -24.46875 L 10.46875 -18.203125 L 22.359375 -18.203125 L 22.359375 -12.453125 L 10.46875 -12.453125 L 10.46875 -5.84375 L 24 -5.84375 L 24 0 Z M 3.625 0 "/></g></g></g><g fill="#ffffff" fill-opacity="1"><g transform="translate(102.955192, 51.873848)"><g/></g></g><g fill="#ffffff" fill-opacity="1"><g transform="translate(113.113848, 51.873848)"><g><path d="M 17.71875 0.609375 C 14.632812 0.609375 11.894531 -0.0625 9.5 -1.40625 C 7.113281 -2.75 5.242188 -4.597656 3.890625 -6.953125 C 2.535156 -9.316406 1.859375 -12.039062 1.859375 -15.125 C 1.859375 -18.21875 2.523438 -20.941406 3.859375 -23.296875 C 5.203125 -25.660156 7.0625 -27.515625 9.4375 -28.859375 C 11.820312 -30.203125 14.539062 -30.875 17.59375 -30.875 C 20.039062 -30.875 22.300781 -30.441406 24.375 -29.578125 C 26.457031 -28.710938 28.222656 -27.492188 29.671875 -25.921875 C 31.128906 -24.347656 32.160156 -22.492188 32.765625 -20.359375 L 25.375 -20.359375 C 24.65625 -21.691406 23.625 -22.722656 22.28125 -23.453125 C 20.945312 -24.191406 19.425781 -24.5625 17.71875 -24.5625 C 15.96875 -24.5625 14.414062 -24.15625 13.0625 -23.34375 C 11.707031 -22.539062 10.644531 -21.429688 9.875 -20.015625 C 9.113281 -18.609375 8.734375 -16.976562 8.734375 -15.125 C 8.734375 -13.3125 9.109375 -11.695312 9.859375 -10.28125 C 10.609375 -8.875 11.660156 -7.757812 13.015625 -6.9375 C 14.367188 -6.113281 15.96875 -5.703125 17.8125 -5.703125 C 20.03125 -5.703125 21.875 -6.265625 23.34375 -7.390625 C 24.8125 -8.515625 25.765625 -10 26.203125 -11.84375 L 16.390625 -11.84375 L 16.390625 -17.15625 L 33.46875 -17.15625 C 33.632812 -14.5625 33.378906 -12.179688 32.703125 -10.015625 C 32.023438 -7.859375 30.988281 -5.976562 29.59375 -4.375 C 28.195312 -2.78125 26.492188 -1.550781 24.484375 -0.6875 C 22.484375 0.175781 20.226562 0.609375 17.71875 0.609375 Z M 17.71875 0.609375 "/></g></g></g><g fill="#ffffff" fill-opacity="1"><g transform="translate(148.388149, 51.873848)"><g><path d="M 0.390625 0 L 12.40625 -30.265625 L 19.15625 -30.265625 L 31.171875 0 L 23.828125 0 L 21.796875 -5.234375 L 9.765625 -5.234375 L 7.734375 0 Z M 11.546875 -10.640625 L 20.0625 -10.640625 L 15.78125 -21.703125 Z M 11.546875 -10.640625 "/></g></g></g><g fill="#ffffff" fill-opacity="1"><g transform="translate(179.944804, 51.873848)"><g><path d="M 3.625 0 L 3.625 -30.265625 L 10.5 -30.265625 L 10.5 0 Z M 3.625 0 "/></g></g></g><g fill="#ffffff" fill-opacity="1"><g transform="translate(194.080455, 51.873848)"><g><path d="M 0.390625 0 L 12.40625 -30.265625 L 19.15625 -30.265625 L 31.171875 0 L 23.828125 0 L 21.796875 -5.234375 L 9.765625 -5.234375 L 7.734375 0 Z M 11.546875 -10.640625 L 20.0625 -10.640625 L 15.78125 -21.703125 Z M 11.546875 -10.640625 "/></g></g></g><g fill="#ffffff" fill-opacity="1"><g transform="translate(26.249286, 89.486607)"><g><path d="M 0.546875 0 L 7.671875 -17.21875 L 9.109375 -17.21875 L 16.234375 0 L 14.671875 0 L 12.875 -4.328125 L 3.90625 -4.328125 L 2.140625 0 Z M 4.5 -5.703125 L 12.296875 -5.703125 L 8.390625 -15.1875 Z M 4.5 -5.703125 "/></g></g></g><g fill="#ffffff" fill-opacity="1"><g transform="translate(52.464222, 89.486607)"><g><path d="M 2.78125 0 L 2.78125 -17.21875 L 4.28125 -17.21875 L 4.28125 -1.421875 L 13.015625 -1.421875 L 13.015625 0 Z M 2.78125 0 "/></g></g></g><g fill="#ffffff" fill-opacity="1"><g transform="translate(75.72595, 89.486607)"><g><path d="M 2.78125 0 L 2.78125 -17.21875 L 4.28125 -17.21875 L 4.28125 -1.421875 L 13.015625 -1.421875 L 13.015625 0 Z M 2.78125 0 "/></g></g></g><g fill="#ffffff" fill-opacity="1"><g transform="translate(98.987679, 89.486607)"><g><path d="M 2.78125 0 L 2.78125 -17.21875 L 4.28125 -17.21875 L 4.28125 0 Z M 2.78125 0 "/></g></g></g><g fill="#ffffff" fill-opacity="1"><g transform="translate(115.457042, 89.486607)"><g><path d="M 0.546875 0 L 7.671875 -17.21875 L 9.109375 -17.21875 L 16.234375 0 L 14.671875 0 L 12.875 -4.328125 L 3.90625 -4.328125 L 2.140625 0 Z M 4.5 -5.703125 L 12.296875 -5.703125 L 8.390625 -15.1875 Z M 4.5 -5.703125 "/></g></g></g><g fill="#ffffff" fill-opacity="1"><g transform="translate(141.671973, 89.486607)"><g><path d="M 2.78125 0 L 2.78125 -17.21875 L 4.1875 -17.21875 L 14.671875 -2.578125 L 14.671875 -17.21875 L 16.140625 -17.21875 L 16.140625 0 L 14.734375 0 L 4.25 -14.671875 L 4.25 0 Z M 2.78125 0 "/></g></g></g><g fill="#ffffff" fill-opacity="1"><g transform="translate(170.003378, 89.486607)"><g><path d="M 10.3125 0.3125 C 8.625 0.3125 7.125 -0.0664062 5.8125 -0.828125 C 4.5 -1.585938 3.460938 -2.640625 2.703125 -3.984375 C 1.953125 -5.328125 1.578125 -6.867188 1.578125 -8.609375 C 1.578125 -10.367188 1.953125 -11.914062 2.703125 -13.25 C 3.460938 -14.582031 4.5 -15.628906 5.8125 -16.390625 C 7.125 -17.160156 8.625 -17.546875 10.3125 -17.546875 C 11.625 -17.546875 12.835938 -17.300781 13.953125 -16.8125 C 15.066406 -16.332031 16.023438 -15.65625 16.828125 -14.78125 C 17.628906 -13.90625 18.222656 -12.859375 18.609375 -11.640625 L 17.03125 -11.640625 C 16.539062 -13.003906 15.695312 -14.078125 14.5 -14.859375 C 13.300781 -15.648438 11.910156 -16.046875 10.328125 -16.046875 C 8.941406 -16.046875 7.703125 -15.734375 6.609375 -15.109375 C 5.515625 -14.484375 4.65625 -13.613281 4.03125 -12.5 C 3.40625 -11.382812 3.09375 -10.085938 3.09375 -8.609375 C 3.09375 -7.148438 3.40625 -5.859375 4.03125 -4.734375 C 4.65625 -3.609375 5.515625 -2.734375 6.609375 -2.109375 C 7.703125 -1.492188 8.941406 -1.1875 10.328125 -1.1875 C 11.941406 -1.1875 13.367188 -1.59375 14.609375 -2.40625 C 15.847656 -3.226562 16.703125 -4.351562 17.171875 -5.78125 L 18.75 -5.78125 C 18.40625 -4.550781 17.820312 -3.476562 17 -2.5625 C 16.1875 -1.644531 15.207031 -0.9375 14.0625 -0.4375 C 12.925781 0.0625 11.675781 0.3125 10.3125 0.3125 Z M 10.3125 0.3125 "/></g></g></g><g fill="#ffffff" fill-opacity="1"><g transform="translate(199.639097, 89.486607)"><g><path d="M 2.78125 0 L 2.78125 -17.21875 L 12.921875 -17.21875 L 12.921875 -15.828125 L 4.28125 -15.828125 L 4.28125 -9.46875 L 12.28125 -9.46875 L 12.28125 -8.09375 L 4.28125 -8.09375 L 4.28125 -1.40625 L 13.1875 -1.40625 L 13.1875 0 Z M 2.78125 0 "/></g></g></g></svg>